<svg xmlns="http://www.w3.org/2000/svg" width="325" height="236" fill="none"><g clip-path="url(#a)"><path fill="#F67A3E" d="M164.876 207.132c-1.551 2.633-2.893 5.012-4.33 7.329-1.231 1.983-2.602 3.878-3.855 5.85-1.173 1.84-2.716 2.541-4.922 2.17-4.804-.808-9.629-1.48-14.444-2.203-9.303-1.403-18.605-2.802-27.911-4.205a69386.067 69386.067 0 0 1-30.484-4.586c-9.303-1.403-18.606-2.813-27.908-4.212-9.236-1.388-18.473-2.794-27.72-4.138-3.565-.518-4.227-1.91-2.76-5.024.566-1.201.988-2.468 1.573-3.951-2.525-.441-4.914-.881-7.31-1.271-3.739-.606-4.29-1.744-2.412-5.097 1.6-2.853 3.209-5.699 4.804-8.552.32-.573.603-1.168.989-1.92-2.985-.709-5.826-1.388-8.67-2.057-2.338-.551-4.683-1.068-7.017-1.63-2.602-.628-3.168-2.012-1.716-4.186 11.58-17.325 20.023-36.138 26.518-55.868 3.697-11.233 6.605-22.668 8.259-34.386.661-4.681.94-9.418 1.381-14.133.045-.456.008-.918.008-1.462-.691-.11-1.268-.187-1.842-.301-2.102-.415-2.774-1.612-1.995-3.64.408-1.057.915-2.074 1.367-3.113 1.172-2.692 2.771-5.288 3.381-8.1.596-2.744.18-5.71.21-8.579.04-4.336.08-8.673.125-13.01.003-.466-.019-.944.066-1.395.242-1.326.967-1.983 2.345-1.969 2.936.037 5.873.144 8.81.235 3.797.118 7.597.25 11.511.378.305-.851.577-1.656.886-2.449 2.183-5.633 5.962-9.584 11.938-11.14 4.205-1.095 8.225-.39 12.033 1.556 4.896 2.504 8.255 6.46 10.49 11.42.272.603.518 1.216.83 1.95 9.134.334 18.253.665 27.412 1.003.184-.456.338-.742.415-1.05 2.511-9.78 12.133-13.587 19.66-11.913 6.079 1.355 11.008 4.385 14.132 9.915.71 1.256 1.154 2.666 1.845 4.289.173.022.677.136 1.184.154 6.141.187 12.283.334 18.421.566.746.029 1.591.334 2.194.778 4.367 3.191 8.66 6.478 13.026 9.665 1.283.936 1.738 2.053 1.643 3.591-.335 5.395-.61 10.789-.901 16.183-.441 8.193-.79 16.393-1.348 24.578-.434 6.386-1.129 12.753-1.706 19.131-.04.448-.055.904-.099 1.602 2.168-.459 4.164-.867 6.153-1.308 11.596-2.574 23.188-5.16 34.78-7.733a19.158 19.158 0 0 1 1.577-.28c1.529-.212 2.209.118 2.929 1.473.346.647.614 1.333.919 2.001 7.649 16.712 17.032 32.337 29.143 46.24 8.251 9.47 17.491 17.795 28.389 24.173 7.494 4.388 15.447 7.554 24.059 8.975.911.15 1.838.396 2.668.786 1.768.822 1.864 2.666.239 3.775-.437.297-.933.517-1.418.741-37.501 17.461-75.009 34.911-112.491 52.409-2.087.973-3.951 1.076-6.127.297-9.251-3.301-17.44-8.394-24.827-14.74-4.345-3.734-8.332-7.887-12.467-11.861-.522-.503-.993-1.057-1.632-1.748v-.003Zm-20.255-27.743c-2.9-5.703-5.804-11.112-8.432-16.649-5.851-12.331-10.265-25.173-13.327-38.48-.798-3.47-.044-4.8 3.407-5.531 11.681-2.478 23.328-5.115 34.987-7.7 3.51-.778 7.012-1.579 10.434-2.35 3.341-9.393 7.123-40.43 5.374-44.52-.243.513-.445.917-.629 1.332a1300.87 1300.87 0 0 0-2.021 4.572c-.544 1.237-1.493 1.836-2.845 1.792-.467-.015-.934-.015-1.401-.048-4.925-.334-9.85-.69-14.778-1.006-10.656-.68-21.314-1.344-31.969-2.005-11.457-.709-22.917-1.388-34.373-2.104-7.726-.481-15.448-1.006-23.174-1.502-6.395-.407-12.786-.822-19.182-1.186-1.709-.096-3.429-.015-5.138-.015-2.892 38.333-15.863 73.244-35.754 105.937.657.176 1.286.36 1.922.51 5.13 1.205 10.262 2.398 15.393 3.599 24.489 5.721 48.978 11.446 73.468 17.164 10.717 2.504 21.438 4.997 32.156 7.498 1.099.257 2.047.565 3.025-.599 4.91-5.849 9.097-12.176 12.864-18.705l-.007-.004Zm-17.363-56.444c-.059.43-.107.562-.085.687.055.327.133.653.21.976 5.726 24.104 15.819 46.236 30.16 66.429 7.495 10.55 16.055 20.134 26.247 28.18 6.479 5.111 13.433 9.404 21.273 12.162 1.161.407 2.143.385 3.242-.154 2.815-1.378 5.675-2.666 8.516-3.992 32.344-15.07 64.691-30.137 97.035-45.211.61-.286 1.209-.599 2.043-1.014-.58-.242-.816-.378-1.069-.444-10.38-2.607-19.66-7.484-28.272-13.715-9.747-7.054-18.127-15.53-25.621-24.901-10.012-12.518-18.109-26.208-24.861-40.72-.33-.709-.676-1.41-1.062-2.207l-107.753 23.92-.003.004Zm-3.135-92.2c-17.367-.627-34.674-1.248-51.92-1.872-.852 3.125-.275 6.566 1.467 9.412 1.727 2.823.445 6.246-2.709 7.237-2.484.782-4.778-.01-6.266-2.27-2.544-3.87-3.98-8.118-4.209-12.76-.033-.646-.088-1.292-.14-2.067-5.983-.21-11.809-.411-17.847-.624v18.14l133.484 7.902c.588-7.171 1.15-14.053 1.731-21.155l-40.382-1.465c-.092.342-.202.529-.187.709.246 2.537.801 4.987 2.021 7.263.529.984 1 2.038 1.276 3.114.661 2.578-.555 4.972-2.955 6.107-2.834 1.337-6.521.492-8.538-1.928-2.581-3.088-3.628-6.782-4.235-10.642-.257-1.63-.382-3.279-.591-5.111v.01ZM37.985 59.19c44.462 2.787 88.6 5.552 132.841 8.32 1.408-3.12 2.867-6.128 4.047-9.323-.492-.106-.687-.176-.882-.187-9.126-.543-18.249-1.083-27.375-1.627-8.924-.528-17.848-1.068-26.775-1.586-9.99-.584-19.983-1.142-29.977-1.726-8.726-.507-17.451-1.024-26.176-1.55-5.995-.36-11.986-.756-17.98-1.108-1.254-.074-2.518-.011-3.845-.011-1.239 2.805-2.474 5.603-3.885 8.794l.007.004ZM147.41 183.67c-.184.099-.342.132-.408.227-.342.492-.669.996-.981 1.506-3.462 5.64-7.263 11.027-11.57 16.065-1.54 1.803-3.121 2.288-5.444 1.741-33.439-7.873-66.896-15.673-100.346-23.487-2-.466-4.007-.896-6.068-1.355l-5.903 10.491L144.066 210c3.267-5.67 6.49-11.259 9.681-16.793l-6.34-9.533.003-.003ZM24.864 198.892c.739.157 1.183.279 1.632.348 10.354 1.572 20.707 3.14 31.065 4.701 10.883 1.641 21.77 3.272 32.652 4.909 11.148 1.679 22.295 3.353 33.443 5.035 9.166 1.384 18.337 2.761 27.499 4.175 1.188.184 2-.051 2.647-1.146 2.348-3.955 4.767-7.865 7.145-11.802.301-.499.507-1.057.775-1.627-1.742-2.174-3.421-4.274-5.215-6.514-.46.804-.776 1.381-1.11 1.946-2.72 4.587-5.465 9.162-8.152 13.767-.816 1.399-1.871 1.906-3.485 1.634-12.228-2.067-24.467-4.098-36.702-6.132-12.302-2.042-24.607-4.073-36.909-6.111-11.776-1.95-23.552-3.91-35.328-5.864-2.746-.455-5.495-.889-8.318-1.344l-1.646 4.025h.007ZM181.93 34.161c-.173 2.078-.313 3.723-.449 5.365-.363 4.447-.716 8.894-1.091 13.34-.07.849.048 1.495.867 2.024 3.194 2.056 6.337 4.19 9.505 6.286.206.136.463.188.915.368.353-6.265.709-12.36 1.007-18.46.022-.448-.257-1.083-.606-1.351-3.224-2.46-6.495-4.862-10.144-7.572h-.004Zm-26.063-6.702c-.36-.804-.591-1.48-.948-2.082-2.837-4.777-7.193-7.282-12.585-7.85-8.056-.85-13.683 5.092-13.775 12.172-.044 3.367.342 6.672 1.455 9.841.5 1.422 1.342 2.74 2.128 4.043.574.952 1.577 1.18 2.628 1.12 1.338-.077 1.783-.745 1.327-1.986-.161-.437-.422-.837-.584-1.27-.757-2.057-1.658-4.077-2.198-6.192-.801-3.132-1.007-6.316.246-9.437 1.845-4.587 6.542-6.893 11.074-5.373 2.61.874 4.407 2.692 5.686 5.064.342.632.658 1.278.996 1.947h4.543l.007.003ZM92.15 25.105c-1.58-4.105-4.973-7.707-8.777-9.474-6.66-3.092-13.728-.69-16.852 5.964-3.087 6.577-2.08 12.951 1.592 19.032.103.17.217.423.367.456.61.143 1.298.418 1.842.26.753-.216.79-1.002.566-1.689-.144-.437-.342-.881-.61-1.248-1.562-2.123-2.095-4.59-2.338-7.124-.28-2.905.136-5.674 1.72-8.24 3.654-5.924 10.6-6.977 15.687-2.233 1.29 1.204 2.286 2.728 3.58 4.307.386.019 1.044.067 1.705.074.46.003.915-.048 1.522-.085h-.004Zm89.563 35.528c.768 15.948-1.746 31.37-5.135 46.985l4.179-.959c.169-1.01.357-1.917.467-2.835.452-3.771.915-7.542 1.316-11.317 1.044-9.827 1.367-19.679 1.169-29.557-.026-1.289-.529-1.965-1.996-2.313v-.004Zm6.711 44.319c.133-.893.283-1.609.342-2.336.787-9.628 1.581-19.253 2.327-28.885.154-1.99.165-3.995.165-5.996 0-.47-.191-1.094-.522-1.38-.72-.625-1.591-1.073-2.683-1.778.232 13.947-.849 27.39-2.672 40.812.382.055.581.136.754.099.709-.147 1.415-.327 2.289-.536Zm-50.265-78.227c1.864.488 6.682.528 7.821.066-1.363-3.11-6.707-3.53-7.821-.066Zm-64.17-2.03h8.917c-1.757-3.155-7.093-3.387-8.916 0Z"/><path fill="#F67A3E" d="M100.378 82.498c-1.4 1.162-2.808 2.32-4.204 3.486-2.606 2.174-5.205 4.356-7.814 6.526-.467.391-.941.794-1.463 1.085-1.037.583-2.044.368-2.694-.49-.618-.814-.577-1.987.158-2.873.345-.418.775-.763 1.194-1.108 5.105-4.264 10.218-8.524 15.331-12.78.47-.392.933-.802 1.444-1.12 1.533-.955 2.87-.43 3.499 1.326.415 1.158.327 2.317.033 3.486-1.533 6.128-3.047 12.26-4.58 18.387-4.472 17.911-8.95 35.819-13.426 53.73-.169.675-.305 1.361-.551 2.006-.507 1.33-1.592 1.932-2.676 1.557-1.003-.346-1.588-1.408-1.364-2.696.192-1.093.49-2.167.758-3.244 5.461-21.884 10.93-43.768 16.392-65.652.114-.457.195-.924.294-1.385-.11-.08-.22-.16-.331-.245v.004ZM198.694 157.157c.879-.092 1.404-.13 1.922-.203 11.027-1.587 21.45 6.488 23.071 17.881 1.665 11.707-5.851 22.57-16.944 24.361-1.698.272-3.458.153-5.189.127-.504-.008-1.165-.161-1.467-.514-.441-.526-.897-1.316-.834-1.937.062-.617.658-1.349 1.213-1.687.514-.314 1.29-.261 1.94-.222 6.818.41 13.044-3.471 15.805-9.894 2.731-6.342 1.451-13.808-3.213-18.774-4.701-5.004-11.945-6.473-18.108-3.666-.978.445-1.959.882-2.941 1.316-.841.372-1.588.134-2.194-.51-.691-.733-.735-1.638-.323-2.516.29-.621.72-1.169 1.084-1.752 3.135-5.012 5.145-10.392 4.763-16.493a13.996 13.996 0 0 0-.853-4.045c-1.242-3.29-3.943-4.679-7.27-3.927-2.481.56-4.575 1.887-6.483 3.57-3.003 2.654-5.238 5.921-6.972 9.583-.294.621-.552 1.28-.941 1.836-.596.848-1.654 1.097-2.511.679-.9-.437-1.249-1.235-1.154-2.22.048-.472.203-.951.394-1.388 2.308-5.296 5.55-9.824 10.118-13.233 2.308-1.722 4.826-2.938 7.678-3.352 4.286-.617 8.16 1.277 10.343 5.185 1.966 3.52 2.297 7.366 1.882 11.323-.317 2.991-1.081 5.871-2.198 8.651-.203.502-.353 1.028-.625 1.825l.007-.004ZM224.124 119.731c-.096 1.005-.21 2.01-.28 3.014-.286 4.237-.558 8.479-.841 12.716-.037.556-.059 1.119-.18 1.66-.261 1.166-1.129 1.925-2.088 1.91-1.04-.016-1.907-.913-2.066-2.178-.04-.342 0-.694.026-1.039.493-7.574.982-15.151 1.485-22.724.048-.694.147-1.388.294-2.063.195-.886.735-1.477 1.617-1.645.864-.165 1.595.115 2.121.851.316.445.588.928.853 1.411 11.757 21.47 23.508 42.944 35.258 64.417.298.545.61 1.089.823 1.672.408 1.12.063 2.178-.816 2.734-.885.564-1.929.399-2.683-.563-.503-.641-.882-1.392-1.279-2.117-10.232-18.686-20.461-37.38-30.693-56.066-.382-.701-.787-1.388-1.18-2.082-.125.035-.25.065-.379.1l.008-.008Z"/><circle cx="24.997" cy="83" r="21.5" fill="#FFA807" stroke="#000"/><circle cx="24.997" cy="83" r="21.5" fill="#FCCA59" stroke="#000"/><circle cx="29.81" cy="80.938" r="2.063" fill="#000"/><circle cx="20.185" cy="80.938" r="2.063" fill="#000"/><path stroke="#000" stroke-linecap="round" stroke-width="2" d="M12.622 85.063s2.32 6.187 12.375 6.187 12.375-6.188 12.375-6.188"/><path fill="#FFF4E2" stroke="#FCCA59" stroke-width="8" d="M230.504 67.082c14.087 0 25.507-11.435 25.507-25.54 0-14.107-11.42-25.542-25.507-25.542-14.087 0-25.507 11.435-25.507 25.541s11.42 25.541 25.507 25.541Z"/><path stroke="#F67A3E" stroke-linecap="round" stroke-width="8" d="m216.906 37.934 14.491 14.512 29.6-29.64"/></g><defs><clipPath id="a"><path fill="#fff" d="M0 0h324.994v236.001H0z"/></clipPath></defs></svg>
