<svg width="94" height="85" viewBox="0 0 94 85" fill="none"
    xmlns="http://www.w3.org/2000/svg">
    <path d="M77.6119 36.5463C87.014 39.2326 89.3302 47.9721 88.346 56.3373C88.2266 57.3526 91.5308 60.6528 92.0358 61.5367C94.5225 65.8882 94.4077 71.5073 91.8681 75.7929C86.5677 84.7376 75.3498 85.892 66.2069 84.5144C59.5554 83.5121 53.1527 83.3266 51.7829 75.7929C48.7122 76.3615 46.4684 76.8605 43.3969 77.1347C27.5217 78.5521 -1.04949 79.5732 0.795942 56.5051C0.882486 55.4229 1.18354 54.3663 1.46682 53.3184C2.34685 50.0619 3.85818 47.0926 5.65983 44.2615C-1.34383 37.2578 -1.58099 28.0406 3.47947 19.6066C5.7016 15.903 9.09441 13.8239 12.0332 10.8851C16.6487 6.26962 18.896 3.22114 25.1154 0.318736C30.3058 -2.10348 38.4004 10.0702 39.0362 10.2142C41.9985 10.8851 42.4198 10.542 45.1625 10.8851C46.8714 11.099 49.5613 12.006 51.2798 11.8914C52.2854 11.8244 57.0096 9.14536 58.5107 8.45838C66.5613 4.77406 70.4901 4.30394 72.9157 13.7364C73.6352 16.5344 74.0035 19.1011 73.922 21.9547C73.9027 22.6276 73.5242 23.3347 73.7543 23.9673C74.3274 25.5435 76.0013 26.5036 76.7733 27.9926C78.2011 30.7462 78.106 33.5812 77.6119 36.5463Z" fill="#F78750"/>
    <path d="M15.2199 13.5687C13.4957 14.2395 9.63126 18.0082 8.8465 18.9357C3.84742 24.8437 1.1015 35.0874 7.84018 40.9071C9.73827 42.5464 16.8152 44.1837 17.2325 45.4355C17.7533 46.4419 17.5413 47.3831 16.7294 47.7836C15.2199 48.0191 14.3588 48.0006 11.3623 47.1127C10.5819 46.8815 9.54002 45.8205 9.01422 46.4419C3.86587 52.5262 2.35253 63.9339 9.34966 69.2518C12.1878 71.4089 16.1695 72.1111 19.5806 72.6062C29.0966 73.9876 38.9483 74.0938 48.4285 72.4385C50.0056 72.1631 51.6771 72.1158 53.1247 71.4322C54.3091 70.8728 54.5984 69.207 55.6405 68.4132C58.2407 66.4321 60.5223 65.6245 63.8588 66.0651C67.784 66.5836 70.8051 67.7423 74.7606 67.7423C75.5749 67.7423 78.0451 67.3215 78.7859 67.5746C79.9635 67.9768 79.9444 69.755 79.2891 70.4259C78.5216 71.1055 77.1162 71.3374 75.5992 71.4322C71.1456 71.7106 67.2229 70.4834 62.8525 69.755C59.4952 69.1955 53.7102 73.7851 56.3114 77.4701C57.7598 79.522 60.4745 79.6322 62.6847 79.9859C69.3334 81.0498 75.4986 82.4682 81.8049 79.3151C87.4765 76.4792 91.5655 71.217 89.1846 64.7234C88.1736 61.9661 84.5332 59.8711 83.9852 57.6791C83.4794 55.6556 85.298 53.2687 84.9916 50.9703C84.3631 46.2572 81.2631 42.825 77.2764 40.5716C74.7534 39.1457 73.0301 42.7525 70.903 43.926C68.4386 45.2858 65.9407 45.8808 63.1879 46.2741C61.3655 45.4355 61.2137 43.926 62.6847 42.5843C66.9133 41.8155 71.8257 40.2778 73.5866 35.8755C75.1561 31.9515 69.6732 25.8122 69.5613 25.8122C69.5613 23.4902 70.0644 21.258 70.0644 18.9357C70.0644 15.9167 70.1366 15.6457 69.5613 13.5687C67.2771 5.32084 52.9677 15.8549 52.2861 15.9167C49.2572 16.1921 46.2527 14.5953 43.2292 14.2395C40.9339 13.9695 38.9622 14.4073 36.6881 14.4073C36.4632 14.4073 30.092 3.71928 27.2957 3.84087C24.8616 3.94671 22.0642 6.44742 20.2515 7.86616C18.773 9.02327 16.3069 11.2095 15.2199 13.5687Z" fill="#FCCA59"/>
    <path d="M43.7324 29.6698C44.4548 29.3683 45.313 29.5163 46.0805 29.6698C49.184 30.2905 48.9978 35.848 45.9128 36.2109C41.6671 36.7104 39.6515 31.3732 43.7324 29.6698Z" fill="#F78750"/>
    <path d="M25.2831 28.4957C26.0055 28.1942 26.8637 28.3423 27.6312 28.4957C30.7347 29.1165 30.5485 34.6739 27.4635 35.0368C23.2178 35.5363 21.2022 30.1991 25.2831 28.4957Z" fill="#F78750"/>
    <path d="M31.8219 36.8641C31.8219 35.9551 33.3099 35.2181 35.1455 35.2181C36.981 35.2181 38.469 35.9551 38.469 36.8641C38.469 37.7734 36.981 38.5102 35.1455 38.5102C33.3099 38.5102 31.8219 37.7734 31.8219 36.8641Z" fill="#F78750"/>
    <path d="M14.6378 36.8641C14.6378 34.8533 16.9409 33.2233 19.7819 33.2233C22.6231 33.2233 24.9262 34.8533 24.9262 36.8641C24.9262 38.8749 22.6231 40.5052 19.7819 40.5052C16.9409 40.5052 14.6378 38.8749 14.6378 36.8641Z" fill="#FDD67F"/>
    <path d="M48.2224 36.8641C48.2224 34.8533 50.5255 33.2233 53.3665 33.2233C56.2076 33.2233 58.5107 34.8533 58.5107 36.8641C58.5107 38.8749 56.2076 40.5052 53.3665 40.5052C50.5255 40.5052 48.2224 38.8749 48.2224 36.8641Z" fill="#FDD67F"/>
</svg>
