<svg width="187" height="141" viewBox="0 0 187 141" fill="none" xmlns="http://www.w3.org/2000/svg">
<path d="M185.772 122.246C184.242 124.726 178.848 124.595 175.542 124.726C167.797 125.033 160.04 124.854 152.292 125.036C146.813 125.164 141.331 125.301 135.862 125.656C132.42 125.88 128.68 125.592 125.632 127.206C119.867 130.258 116.682 138.96 109.512 139.916C101.758 140.95 99.0496 133.538 94.0117 129.686C89.451 126.198 72.8849 127.353 68.2817 126.586C65.816 138.093 56.8601 145.345 45.9617 136.816C37.7852 130.417 32.9148 120.91 30.1517 111.086C25.7448 95.4174 29.5981 77.4994 28.9117 61.486C28.6755 55.9764 27.916 50.2587 21.1617 47.846C16.579 45.8139 14.1939 44.8669 10.9317 43.196C-18.9802 27.8752 19.5191 -7.29122 42.5517 1.346C59.7205 7.78408 60.6452 26.7282 60.8417 42.266C60.9642 51.9498 57.9222 65.1542 68.9017 69.546C77.8843 73.1392 88.0815 74.688 97.7318 74.506C104.941 74.3699 112.003 72.8745 119.122 74.816C138.161 80.0085 149.527 98.7027 165.312 109.226C166.395 109.948 172.983 114.003 175.232 114.806C179.563 116.353 188.072 115.344 185.772 122.246Z" fill="#F78750"/>
<path d="M32.3218 7.23599C25.7892 8.09097 21.9105 10.2417 17.1318 13.746C14.5374 15.6485 11.7933 18.1288 10.0018 20.876C-0.363023 36.7688 22.7035 37.8367 30.7718 45.056C34.5752 48.4589 35.9126 55.0879 36.0418 59.936C36.5915 80.5513 29.5827 119.094 52.1618 132.166C60.1474 136.789 59.5618 126.62 62.3918 122.246C64.4012 119.14 68.6448 119.618 71.6918 119.766C78.9805 120.119 89.5233 119.801 96.8018 122.866C100.06 124.238 104.616 134.079 108.892 132.476C114.966 130.198 117.421 122.108 123.772 120.076C136.353 116.05 151.406 117.891 164.382 117.596C159.54 113.722 154.41 110.325 149.812 106.126C140.164 97.3177 130.92 86.6617 118.192 82.256C111.965 80.1006 105.734 81.3359 99.2818 81.636C86.8155 82.2157 67.3193 80.9428 58.0518 71.096C52.0285 64.696 53.8082 52.6835 53.7118 45.056C53.5221 30.0712 54.1623 4.37717 32.3218 7.23599Z" fill="#FCCA59"/>
<path d="M75.4231 79.8649C81.4073 75.7013 81.4073 75.9565 87.3913 79.8649C87.3913 89.2874 84.7122 96.9261 81.4073 96.9261C78.1024 96.9261 75.4231 89.2874 75.4231 79.8649Z" fill="#FDD67F"/>
<path d="M93.3918 80.3785C99.3761 76.2149 99.3761 76.4697 105.36 80.3785C105.36 89.8009 102.681 97.4397 99.3761 97.4397C96.0712 97.4397 93.3918 89.8009 93.3918 80.3785Z" fill="#FDD67F"/>
<path d="M36.3518 29.7684C37.4352 29.7684 38.9217 30.784 37.9018 32.346C34.821 37.0649 26.6271 37.8278 22.4018 34.206C21.0771 33.0705 19.8384 31.0084 22.4018 29.7684C25.3638 28.781 26.4972 33.6884 29.7711 32.8142C33.191 31.9009 32.2319 29.7684 36.3518 29.7684Z" fill="#F78750"/>
<path d="M35.7319 16.2261C43.2649 14.4944 47.2694 25.7403 39.4519 27.3861C31.7202 29.0139 28.564 17.8737 35.7319 16.2261Z" fill="#F78750"/>
<path d="M19.3019 16.2261C26.8349 14.4944 30.8395 25.7403 23.0219 27.3861C15.2902 29.0139 12.1341 17.8737 19.3019 16.2261Z" fill="#F78750"/>
</svg>
