<svg width="90" height="85" viewBox="0 0 90 86" fill="none"
    xmlns="http://www.w3.org/2000/svg">
    <path d="M69.6192 74.5934C68.798 82.0233 60.2643 85.9048 53.9162 82.298C52.3773 81.4237 49.4352 78.4243 49.0558 77.2243C48.3583 76.964 47.6055 76.8961 46.9994 77.2243C46.0913 77.7158 46.2631 79.1803 45.6908 80.043C44.1856 82.3127 41.637 84.847 38.774 85.1168C34.0747 85.5597 30.1198 84.0256 27.1837 80.2309C26.685 79.5862 26.5547 78.6115 25.8751 78.1638C23.5617 76.6402 20.6436 76.2912 18.2106 74.9692C11.4313 71.2857 5.40345 65.3341 2.50755 58.0566C-0.980385 49.2911 -0.74727 39.3852 2.69449 30.6205C4.03504 27.207 5.75452 23.9222 7.74189 20.8488C8.10923 20.2807 8.77997 19.8299 8.86353 19.1575C9.16582 16.7262 8.05408 14.266 8.30271 11.8287C8.85606 6.40537 14.2672 1.09423 19.7061 0.741509C23.3856 0.502853 26.4608 1.00084 29.6139 2.99653C30.512 3.56479 30.9874 4.96704 32.0442 5.06363C35.6893 5.39681 40.1226 3.89403 43.8214 3.7482C46.5328 3.64128 50.335 3.75891 52.9815 4.12404C54.5554 4.34127 56.0694 5.16323 57.655 5.06363C58.2706 5.02492 60.6666 2.54928 61.5808 2.05694C67.3886 -1.07077 75.7275 -0.775179 80.6487 3.93612C83.7108 6.86765 85.0037 11.3459 83.4528 15.3991C82.9004 16.8431 80.6493 17.8445 81.0226 19.3454C81.4425 21.0339 82.8152 22.3251 83.6398 23.8555C85.7537 27.7784 87.5595 31.9303 88.6872 36.2581C92.1579 49.5792 88.9192 63.6658 76.9099 71.2109C75.4219 72.1458 71.4301 74.5934 69.6192 74.5934Z" fill="#F78750"/>
    <path d="M50.9252 72.7143C51.9245 73.6539 52.9185 75.2555 52.9815 75.3451C55.0958 78.3561 58.9049 80.6442 62.5155 78.3518C66.0143 76.1304 64.0291 73.82 65.8804 71.5868C66.7007 70.5972 70.2299 69.7487 71.1147 69.3317C73.3047 68.2997 75.6219 66.9623 77.4707 65.3855C87.5412 56.7961 87.1109 43.1686 82.5181 31.7481C81.9016 30.2149 81.2099 28.711 80.4618 27.2381C79.523 25.3901 77.2838 21.0828 75.9752 20.2851C75.5049 16.8199 83.7626 12.7321 77.2838 6.94289C74.1166 4.11284 69.1455 3.89429 65.3196 5.25163C62.874 6.11924 61.1478 8.35641 58.9636 9.76166C57.5741 10.6556 55.7209 9.14736 54.1031 8.82207C49.3311 7.86275 44.3374 7.862 39.5218 8.44624C37.6402 8.67456 35.7701 9.00304 33.9136 9.38583C33.0129 9.57149 31.7643 10.4019 30.7356 9.94958C28.5725 8.99834 29.8751 8.77566 28.4923 7.69456C24.58 4.63582 19.8971 4.02715 15.7803 7.13081C13.2755 9.01939 12.2413 12.3756 12.6023 15.3992C12.7265 16.4397 14.3031 18.7772 13.724 19.9092C10.4961 26.2184 6.76997 30.8376 5.1247 37.9494C2.40528 49.7037 7.01168 62.073 16.902 68.9559C20.5009 71.4605 24.9174 72.1595 28.4923 74.4055C30.753 75.8258 31.2573 78.896 33.9136 80.231C39.3603 82.9686 41.8873 77.5421 43.8214 73.6539C44.3067 72.678 47.9872 72.1447 50.9252 72.7143Z" fill="#FCCA59"/>
    <path d="M27.5634 48.9277C27.5634 38.2226 35.9738 29.5443 46.3488 29.5443C56.7237 29.5443 65.1341 38.2226 65.1341 48.9277C65.1341 59.6328 56.7237 68.3111 46.3488 68.3111C35.9738 68.3111 27.5634 59.6328 27.5634 48.9277Z" fill="#FDD67F"/>
    <path d="M59.3375 40.0164C61.7677 39.0088 63.7869 42.3697 61.7677 43.7748C60.4141 44.7168 58.8662 45.3441 57.4681 46.2177C56.1803 47.0224 50.4698 50.6049 52.0468 52.9828C54.2454 56.298 62.7024 54.768 65.5066 54.2982C68.3045 53.8293 72.6383 51.9218 72.2364 56.3653C72.0194 58.7658 63.6682 59.2871 61.7677 59.372C53.8424 59.726 40.9599 56.3256 50.1774 46.2177C50.8629 45.466 51.6286 44.7877 52.4207 44.1506C54.1428 42.7657 55.5602 42.0519 59.3375 40.0164Z" fill="#F78750"/>
    <path d="M45.8778 48.0971C47.4286 50.2264 47.2834 53.0654 45.6908 55.2379C41.9836 60.2954 30.5462 58.9328 25.6882 57.305C25.1223 56.9954 24.9012 56.4786 24.7535 55.9896C24.5407 55.2379 24.7535 53.735 26.249 53.1708C28.9006 53.1708 31.4512 53.816 34.1005 53.9225C35.9843 53.9982 37.435 53.9139 39.3348 53.5467C46.5704 52.148 37.7376 46.12 35.4091 44.7145C34.1005 43.9247 32.9983 42.7459 33.1658 41.1441C34.1138 36.3798 45.0001 46.8919 45.8778 48.0971Z" fill="#F78750"/>
    <path d="M53.5423 13.3697C54.8586 13.1393 55.6501 13.49 56.1595 14.0838C56.9829 16.5673 54.8701 19.0372 52.2337 19.1576C50.4114 19.2409 48.5822 18.8507 46.8124 18.4059C45.3732 18.0442 45.1545 18.9789 43.6345 19.3455C40.431 20.1184 33.5159 18.6653 35.0352 14.0838C35.3616 13.5201 35.2799 13.0069 37.6524 13.1442C39.4107 13.2461 39.953 15.4787 42.5128 14.8355C44.9427 14.2249 44.6789 13.1662 47.3733 13.708C49.235 14.0823 49.4259 15.0108 51.1121 14.6476C52.236 14.4055 52.395 13.5576 53.5423 13.3697Z" fill="#F78750"/>
    <path d="M68.1237 7.88235C70.3649 7.04198 71.3293 7.40617 73.1711 8.82194C76.8686 11.6642 75.3605 16.9255 71.4886 18.5937C65.2152 21.2963 60.7646 10.6416 68.1237 7.88235Z" fill="#F78750"/>
    <path d="M19.3322 7.88235C21.5734 7.04198 22.5379 7.40617 24.3796 8.82194C28.0771 11.6642 26.5691 16.9255 22.6971 18.5937C16.4238 21.2963 11.9731 10.6416 19.3322 7.88235Z" fill="#F78750"/>
</svg>
