<svg width="82" height="85" viewBox="0 0 82 85" fill="none"
    xmlns="http://www.w3.org/2000/svg">
    <path d="M62.3475 52.5083C68.0313 56.0981 72.4035 58.6253 71.5633 65.9776C71.2962 68.3153 69.2592 70.1359 68.3732 72.1806C66.705 76.0305 64.144 82.8643 58.4484 79.4469C52.252 75.7291 60.7703 69.3187 59.5118 64.9143C59.0416 63.2685 54.819 61.4705 53.1316 59.9519C54.8789 63.4465 57.1265 66.8533 55.2583 70.94C54.6308 72.313 53.5738 73.4623 52.9544 74.839C52.0406 76.8699 51.7085 79.1891 50.4732 81.042C47.8197 85.0222 41.943 86.753 38.5989 82.637C35.2536 78.5197 42.4354 72.7752 42.8524 68.8133C43.3341 64.2372 39.6171 63.5172 37.3583 60.1291C38.0024 62.7049 40.893 64.2332 41.0801 67.041C41.4406 72.4487 38.9865 79.9981 32.2187 78.9153C31.697 78.8318 31.227 78.5188 30.8009 78.2063C26.7539 75.2385 31.1254 71.5463 30.092 70.2311C27.774 67.281 25.0958 65.9097 23.3573 62.4331C16.2966 68.4852 33.5382 72.7669 25.4841 81.3965C23.2131 83.8296 18.3067 84.8861 16.2682 81.5737C15.6063 80.4981 16.3527 78.8343 15.5593 77.8519C13.0441 74.7378 9.12131 75.4407 8.47018 70.2311C7.93123 65.919 10.008 61.6554 12.9009 58.534C14.5764 56.7262 16.9381 55.4219 18.0405 53.2172C0.791602 53.2172 -3.61056 37.6282 2.79888 23.7974C9.01019 10.394 23.9108 0.748361 38.5989 0.0488426C52.8399 -0.629231 68.5637 5.77685 76.7029 17.7716C87.4217 33.5678 81.4617 49.7778 62.3475 52.5083Z" fill="#F67A3E" fill-opacity="0.890196"/>
    <path d="M60.0435 44.8875C60.4541 46.037 60.0435 46.6989 59.8663 47.1914C59.7677 47.5082 59.7736 47.9292 60.0435 48.0776C75.5752 49.187 81.8845 35.3177 74.7534 22.5568C68.1593 10.7568 54.4011 4.6509 41.2574 4.12507C26.9614 3.55315 11.203 13.5798 5.989 26.9875C3.12623 34.3488 2.59047 42.4329 10.0652 47.0142C16.7902 51.136 20.901 47.1597 27.4336 44.8875C29.7872 44.0689 33.1779 43.3086 35.5861 42.938C41.6685 42.0022 47.9353 42.0022 54.0178 42.938C55.5065 43.167 56.9872 43.4588 58.4485 43.8241C59.2763 44.0311 59.7062 44.278 60.0435 44.8875Z" fill="#FDD67F"/>
    <path d="M54.9062 41.969C66.2404 42.6359 70.8446 34.2994 65.6407 26.6291C60.8287 19.5364 50.7887 15.8663 41.1971 15.5503C30.7647 15.2065 19.2651 21.2333 15.4602 29.2923C13.3711 33.717 12.9801 38.5761 18.4348 41.3298C23.7518 42.978 24.0376 42.4063 29.7547 41.5487C32.0415 41.3298 36.0012 41.1998 37.7585 40.977C42.1972 40.4146 50.4676 41.4065 54.9062 41.969Z" fill="#FCCA59"/>
    <path d="M43.384 46.3053C41.3592 47.7063 41.7438 48.1678 40.5484 50.5588C37.2445 57.1667 44.3772 59.7498 46.7513 65.0914C48.8001 69.7013 44.8228 74.5283 42.8523 78.2063C42.3437 79.1557 41.4604 80.7192 43.2068 80.8647C47.1591 81.194 48.1086 75.9458 49.0553 73.4212C49.92 71.1154 51.8192 69.677 51.7137 67.041C51.519 62.1697 45.7656 58.8459 45.5107 53.7489C45.4365 52.2646 45.3874 50.7516 45.8652 49.3182C46.2087 48.2878 47.7963 47.1438 47.1058 46.3053C46.3171 45.3475 44.4041 45.5994 43.384 46.3053Z" fill="#FDD67F"/>
    <path d="M37.7126 46.6597C36.3538 46.896 34.9918 47.1145 33.6364 47.3686C33.101 47.469 32.3435 47.2699 32.0413 47.7231C31.0556 49.2019 31.3505 51.2411 30.6235 52.8627C29.4092 55.5715 26.7935 57.8153 27.4334 61.0152C28.7578 67.6375 37.57 65.731 33.1047 74.6617C36.1426 74.6617 37.3878 70.7932 37.0037 68.1043C36.7124 66.0646 36.0373 66.3154 34.6998 64.5597C32.7522 62.0036 32.981 59.1679 33.9909 56.23C34.4245 54.9682 37.9629 47.1602 37.7126 46.6597Z" fill="#FDD67F"/>
    <path d="M55.4356 47.3687C54.83 50.3962 53.4489 54.7396 56.1445 57.2934C58.5986 59.6183 62.1531 60.3254 63.5881 63.6736C65.415 67.9365 60.5752 71.6753 60.5752 75.7251C63.7198 75.7251 63.4211 73.2739 64.4742 70.7627C65.7311 67.7656 67.9594 66.0735 67.4871 62.6103C66.9946 58.9982 62.4739 57.9343 60.0435 56.0528C57.0633 53.7455 56.2342 50.9212 55.7901 47.3687C55.6128 47.3687 55.6128 47.3687 55.4356 47.3687Z" fill="#FDD67F"/>
    <path d="M27.4335 49.141C23.8222 50.6887 23.1802 53.9469 20.5217 56.7618C18.0529 59.3757 11.561 64.4872 12.5464 69.1677C13.6828 74.5657 19.3268 72.4668 19.8127 79.2697C21.4216 79.6719 24.1346 78.0786 23.3573 76.0796C21.6143 71.5974 16.2863 69.4538 17.1543 64.0281C18.1356 57.8945 27.4335 56.1846 27.4335 49.141Z" fill="#FDD67F"/>
    <path d="M20.1672 31.0637C21.7467 30.5017 22.6681 30.6534 23.889 31.7726C25.76 33.4876 25.4215 37.3154 22.6484 37.9756C17.9762 39.088 15.809 32.6144 20.1672 31.0637Z" fill="#F78953"/>
    <path d="M41.7889 29.1142C43.3684 28.5522 44.2898 28.7039 45.5107 29.8231C47.3817 31.5382 47.0432 35.3659 44.2701 36.0261C39.5979 37.1386 37.4307 30.665 41.7889 29.1142Z" fill="#F78953"/>
    <path d="M27.7454 35.5385C27.6465 34.8289 29.7809 33.9449 32.5125 33.564C35.2441 33.1832 37.5389 33.4497 37.6378 34.1593C37.7368 34.869 35.6025 35.7528 32.8709 36.1336C30.1391 36.5145 27.8445 36.2481 27.7454 35.5385Z" fill="#F78953"/>
</svg>
