<svg width="120" height="55" viewBox="0 0 120 55" fill="none"
    xmlns="http://www.w3.org/2000/svg">
    <path d="M1.14742 42.1149L8.37582 38.8481C9.95351 43.93 12.5123 46.4706 16.052 46.4706C18.3123 46.4706 20.1249 45.6594 21.4892 44.0365C22.7686 42.5418 23.4932 40.6202 23.6642 38.2717C23.9625 34.2147 24.1119 24.009 24.1119 7.65349L17.0755 7.46132L17.3953 0.86368H36.1379L36.2019 7.26914H31.2124C31.1274 16.9199 30.9775 26.8699 30.7646 37.1186C30.6797 41.3037 29.4638 44.9548 27.1184 48.072C24.5597 51.5309 21.2549 53.2604 17.2034 53.2604C11.6597 53.2604 7.71464 51.9579 5.36931 49.3531C3.62069 47.3889 2.21339 44.9759 1.14742 42.1149ZM104.111 0.86368L104.303 52.1075H97.4579L97.5219 46.0864C94.6648 50.1002 90.8057 52.1075 85.944 52.1075C81.7646 52.1075 78.6517 50.378 76.6047 46.919C74.9841 44.1862 74.11 40.5351 73.982 35.9657C73.8541 31.6956 75.0055 27.6386 77.4363 23.7953C80.1654 19.4395 83.5772 17.3048 87.6712 17.3898C91.7227 17.4749 95.0699 19.1193 97.7138 22.322V0.735596L104.111 0.86368ZM88.2469 23.9875C86.0295 23.9875 84.1954 25.0764 82.7456 27.2542C81.5942 28.9622 80.8481 31.0549 80.5068 33.5316C80.3788 34.4284 80.3149 35.4532 80.3149 36.6062C80.3149 39.1259 80.8481 41.1967 81.9141 42.8195C83.1509 44.7411 84.963 45.702 87.3513 45.702C89.9955 45.702 92.2129 44.5065 94.0039 42.1149C95.7096 39.8945 96.4985 37.4389 96.3705 34.7486C96.2426 32.0158 95.539 29.6457 94.2597 27.6386C92.7672 25.2045 90.7631 23.9875 88.2469 23.9875ZM109.985 19.1193L117.981 18.7349L117.15 52.1075H110.049L109.985 19.1193ZM114.591 1.82446C113.098 1.82446 111.798 2.27289 110.688 3.16968C109.58 4.06637 109.025 5.24093 109.025 6.69262C109.025 9.21231 110.241 10.7496 112.672 11.3046C113.056 11.3897 113.504 11.4327 114.015 11.4327C115.38 11.4327 116.553 11.0274 117.533 10.2157C118.557 9.40448 119.111 8.33658 119.196 7.01297C119.282 5.64679 118.877 4.45071 117.981 3.42585C117.086 2.35841 115.956 1.82446 114.591 1.82446Z" fill="#F67A3E"/>
    <path d="M51.8241 50.8564C60.1042 50.8564 66.8166 44.1349 66.8166 35.8436C66.8166 27.5523 60.1042 20.8308 51.8241 20.8308C43.544 20.8308 36.8315 27.5523 36.8315 35.8436C36.8315 44.1349 43.544 50.8564 51.8241 50.8564Z" fill="#FFF4E2" stroke="#FCCA59" stroke-width="5"/>
    <path d="M42.6142 33.9766L51.1319 42.5064L68.5303 25.0845" stroke="#F67A3E" stroke-width="6" stroke-linecap="round"/>
</svg>
