<svg width="217" height="256" viewBox="0 0 217 256" fill="none" xmlns="http://www.w3.org/2000/svg">
<path d="M17 34.0664L130.5 4.06641H146.5L161.5 13.5664L208 180.066V200.066L201 215.066L178.5 223.566L77.5 251.066L61.5 248.566L49 238.566L1 64.5664C1.16667 60.8997 2 52.2664 4 47.0664C6 41.8664 13.5 36.2331 17 34.0664Z" fill="#FEFAF3"/>
<path d="M130.479 1.1603C148.494 -3.66949 167.013 7.01954 171.843 25.0346L174.455 34.7797L169.657 47.21L164.258 27.0686C160.551 13.243 146.338 5.03991 132.513 8.74641L27.0686 37.0155C13.243 40.7221 5.03984 54.9348 8.74642 68.7604L51.4552 228.064C55.1618 241.89 69.3746 250.093 83.2002 246.386L188.644 218.117C202.47 214.411 210.673 200.198 206.966 186.372L182.376 94.6518L187.388 83.0177L214.552 184.338L214.767 185.183C218.979 202.647 208.745 220.377 191.517 225.467L190.678 225.703L85.2335 253.973L84.3898 254.187C66.9254 258.399 49.1952 248.165 44.1054 230.937L43.8691 230.098L1.16031 70.7944C-3.66949 52.7793 7.01945 34.2592 25.0346 29.4293L130.479 1.1603Z" fill="#F67A3E"/>
<line x1="69.9958" y1="171.081" x2="137.579" y2="150.179" stroke="#F67A3E" stroke-width="9" stroke-linecap="round"/>
<line x1="42.6886" y1="83.2186" x2="140.035" y2="56.5385" stroke="#F67A3E" stroke-width="9" stroke-linecap="round"/>
<line x1="54.3769" y1="127.148" x2="154.419" y2="97.9409" stroke="#F67A3E" stroke-width="9" stroke-linecap="round"/>
<path d="M126.179 197.313L132.854 144.692L160.343 154.902L126.179 197.313Z" fill="#FEFAF3"/>
<path d="M144.5 116L177.5 33.5L180 21L188.5 13H202L213 23V36L207 44.5L160.5 155L132.5 143.5L144.5 116Z" fill="#FEFAF3"/>
<path d="M168.737 49.6268C167.3 48.2886 167.579 46.8623 168.297 45.2557C170.112 41.1913 171.8 37.0695 173.538 32.9706C173.729 32.522 173.825 31.9698 174.15 31.6554C175.788 30.0412 175.655 27.9284 175.968 25.8963C177.121 18.3925 183.157 12.1848 190.835 10.4862C201.986 8.0207 213.255 15.1794 215.643 26.3679C216.942 32.4644 215.505 37.9743 211.448 42.7327C210.723 43.584 209.993 44.3278 209.985 45.5893C209.985 46.2373 209.542 46.893 209.271 47.5333C207.518 51.7012 205.768 55.8691 203.992 60.0255C203.037 62.2571 202.853 62.3759 200.382 62.7862C200.13 63.4112 199.843 64.109 199.557 64.8107C187.539 94.4653 175.521 124.12 163.515 153.778C162.835 155.458 162.032 156.945 160.676 158.28C158.713 160.22 157.147 162.566 155.405 164.737C147.906 174.058 140.411 183.375 132.905 192.689C131.682 194.203 130.41 195.68 129.18 197.187C128.431 198.103 127.595 198.793 126.327 198.356C125.333 198.015 124.879 197.152 125.028 195.58C125.341 192.256 125.704 188.931 126.101 185.615C127.289 175.665 128.5 165.714 129.707 155.764C130.051 152.931 130.72 150.097 130.681 147.271C130.624 143.199 132.282 139.729 133.73 136.152C145.113 108.043 156.505 79.9371 167.892 51.8277C168.179 51.1222 168.439 50.409 168.737 49.6268ZM159.122 152.789C171.537 122.13 183.894 91.6202 196.298 60.9879C188.364 57.7632 180.674 54.6421 172.828 51.4558C160.413 82.1188 148.074 112.59 135.663 143.253C143.536 146.455 151.222 149.58 159.122 152.789ZM206.345 41.7205C207.071 40.9421 207.666 40.3631 208.197 39.7228C210.967 36.3869 212.136 32.5488 211.471 28.2505C210.107 19.3971 201.661 13.2814 192.803 14.6656C185.392 15.8235 180.029 22.0236 180.12 29.2283C180.136 30.5243 180.56 31.2336 181.801 31.6937C184.464 32.683 187.069 33.8295 189.701 34.9069C195.213 37.1653 200.725 39.4237 206.337 41.7243L206.345 41.7205ZM140.472 176.194C145.813 169.564 150.992 163.134 156.318 156.52C149.174 153.594 142.271 150.764 135.17 147.854C134.181 156.018 133.222 163.947 132.248 171.968C135.002 173.383 137.638 174.737 140.472 176.194ZM172.694 46.2871C181.981 50.0984 191.049 53.8216 200.252 57.5945C201.906 53.6644 203.48 49.9259 205.107 46.0648C195.84 42.2765 186.801 38.492 177.534 34.811C175.891 38.7067 174.36 42.334 172.694 46.2833V46.2871Z" fill="#F67A3E"/>
<path d="M154.145 140.22C154.274 139.829 154.458 139.158 154.718 138.522C163.187 117.552 171.663 96.5822 180.14 75.6161C180.27 75.294 180.392 74.9643 180.556 74.6576C181.255 73.3385 182.321 72.8094 183.425 73.212C184.609 73.6453 185.072 74.8263 184.632 76.3638C184.499 76.8316 184.292 77.2764 184.109 77.7288C176.274 97.0806 168.435 116.429 160.6 135.78C159.974 137.329 159.367 138.886 158.729 140.428C158.515 140.937 158.293 141.47 157.953 141.896C157.342 142.659 156.528 142.985 155.546 142.617C154.58 142.253 154.16 141.52 154.145 140.22Z" fill="#F67A3E"/>
<path d="M162.243 102.954C162.124 103.338 161.983 103.947 161.75 104.518C158.197 113.353 154.633 122.187 151.062 131.017C150.855 131.531 150.63 132.053 150.309 132.497C149.686 133.356 148.628 133.625 147.719 133.245C146.837 132.877 146.275 131.88 146.459 130.853C146.554 130.312 146.779 129.79 146.986 129.273C150.485 120.565 153.988 111.857 157.502 103.157C157.762 102.517 158.048 101.861 158.465 101.328C159.091 100.527 160.001 100.397 160.917 100.749C161.781 101.083 162.155 101.811 162.243 102.958V102.954Z" fill="#F67A3E"/>
</svg>
