<svg xmlns="http://www.w3.org/2000/svg" width="666" height="691" fill="none">
    <path fill="#FCCA59" d="m195.127 467.763-108-57.5v-41.5l256-29.5 231-21h26l14.5 72-29.5 133-51.5 18.5h-143.5l-87.5-18.5-107.5-55.5Z"/>
    <path fill="#FCCA59" d="M77.506 379.496s-62.025-23.897-51.285-97.199c10.74-73.302 51.285-116.532 51.285-116.532s-50.745-58.301-23.475-99.677c27.27-41.377 141.394 15.201 141.394 15.201s31.828-10.166 68.252-9.1c36.425 1.067 73.372 9.1 73.372 9.1S456.061-4.117 505.458 15.995c49.399 20.11 30.085 116.108 30.085 116.108s83.624 28.457 82.778 105.808c-.847 77.35-121.108 128.448-121.108 128.448"/>
    <path stroke="#F67A3E" stroke-linecap="round" stroke-linejoin="round" stroke-miterlimit="10" stroke-width="25.858" d="M77.506 379.496s-62.025-23.897-51.285-97.199c10.74-73.302 51.285-116.532 51.285-116.532s-50.745-58.301-23.475-99.677c27.27-41.377 141.394 15.201 141.394 15.201s31.828-10.166 68.252-9.1c36.425 1.067 73.372 9.1 73.372 9.1S456.061-4.117 505.458 15.995c49.399 20.11 30.085 116.108 30.085 116.108s83.624 28.457 82.778 105.808c-.847 77.35-121.108 128.448-121.108 128.448"/>
    <path fill="#FDD67F" d="m89.127 412.763-9.39-66.16 182.721 4.764 26.103 162.142"/>
    <path stroke="#F67A3E" stroke-linecap="round" stroke-linejoin="round" stroke-miterlimit="10" stroke-width="25.858" d="m89.127 412.763-9.39-66.16 182.721 4.764 26.103 162.142"/>
    <path fill="#FCCA59" d="M585.294 315.621s62.047 31.308 65.177 101.324c3.131 70.016-16.222 81.971-16.222 81.971s25.614 32.731 16.222 67.739-65.499 121.506-256.258 110.417c-185.061-10.758-274.274-33.627-345.271-110.417-70.996-76.79-15.112-133.868-15.112-133.868s30.155-22.727 55.77-15.842c25.615 6.887 118.623 77.723 232.049 113.716 113.426 35.994 238.418 9.72 238.418 9.72"/>
    <path stroke="#F67A3E" stroke-linecap="round" stroke-linejoin="round" stroke-miterlimit="10" stroke-width="25.858" d="M585.294 315.621s62.047 31.308 65.177 101.324c3.131 70.016-16.222 81.971-16.222 81.971s25.614 32.731 16.222 67.739-65.499 121.506-256.258 110.417c-185.061-10.758-274.274-33.627-345.271-110.417-70.996-76.79-15.112-133.868-15.112-133.868s30.155-22.727 55.77-15.842c25.615 6.887 118.623 77.723 232.049 113.716 113.426 35.994 238.418 9.72 238.418 9.72"/>
    <path fill="#F67A3E" stroke="#F67A3E" stroke-linecap="round" stroke-linejoin="round" stroke-miterlimit="10" stroke-width="25.858" d="M138.942 267.799a8 8 0 1 1 15.648-3.335 8 8 0 0 1-6.156 9.491 7.999 7.999 0 0 1-9.492-6.156ZM285.263 267.799a8.002 8.002 0 0 1 15.65-3.335 8.001 8.001 0 0 1-15.65 3.335Z"/>
    <path fill="#3395FF" stroke="#F67A3E" stroke-linecap="round" stroke-linejoin="round" stroke-miterlimit="10" stroke-width="17.265" d="M199.816 284.938c0-3.216 6.738-5.822 15.05-5.822 8.31 0 15.049 2.606 15.049 5.822s-6.739 5.823-15.049 5.823c-8.312 0-15.05-2.607-15.05-5.823Z"/>
    <path fill="#F67A3E" stroke="#F67A3E" stroke-linecap="round" stroke-linejoin="round" stroke-miterlimit="10" stroke-width="17.265" d="M120.574 287.392c0-1.1-1.183-1.796-2.144-1.262l-22.975 12.78s-6.232 10.278 6.308 16.711c12.54 6.434 18.811 0 18.811 0v-28.229ZM321.649 293.215c0-1.1 1.183-1.796 2.144-1.262l22.975 12.78s6.232 10.278-6.308 16.711c-12.54 6.432-18.811 0-18.811 0v-28.229Z"/>
    <circle cx="115.627" cy="378.263" r="10" fill="#F67A3E"/>
    <circle cx="137.627" cy="379.263" r="5" fill="#F67A3E"/>
</svg>
