<svg width="92" height="85" viewBox="0 0 92 85" fill="none"
    xmlns="http://www.w3.org/2000/svg">
    <path d="M17.8381 28.6039L8.32503 36.4863L4.51969 47.7662L8.32503 60.8128L17.8381 73.0441L33.0592 79.8391H54.6676H68.122L75.189 73.0441L79.2661 63.9386L75.189 47.7662L64.1809 36.4863L62.6214 35.0967L54.6676 32.5452L45.7228 28.6039L33.0592 26.1186H27.2289L17.8381 28.6039Z" fill="#FCCA59"/>
    <path d="M31.6127 25.1195L28.1451 18.4708V8.64124L30.6956 4.22796L37.6882 3.33969L44.2221 5.94743L48.3201 10.3035L51.7302 7.52376L60.1051 3.33969L67.9168 4.22796L73.5491 10.3035L75.4266 15.4285L73.5491 22.692L70.5989 28.4252L65.6369 33.253H61.7478L31.6127 25.1195Z" fill="#FDD67F"/>
    <path d="M45.0975 3.89775C45.7277 4.43811 46.3345 4.99993 46.9359 5.57209C47.4993 6.09953 48.0792 6.58978 48.676 7.07864C48.7678 6.95598 48.8595 6.83312 48.9541 6.70668C51.479 3.42837 54.6972 1.31487 58.8276 0.654832C63.8669 0.0647771 68.121 1.24429 72.0909 4.32638C74.6032 6.46334 76.6438 9.52495 77.1052 12.844C77.4833 18.3326 76.6237 23.4268 73.3279 27.9532C73.1881 28.1517 73.0482 28.3499 72.904 28.5542C71.0315 31.1405 68.6991 33.3695 66.1709 35.3091C66.2844 35.3961 66.3981 35.4834 66.515 35.5731C71.6798 39.613 78.3267 46.1849 79.2479 53.0089C79.5523 54.9952 79.5523 54.9952 80.7326 56.5467C82.0903 57.3206 83.5809 57.7488 85.07 58.1966C85.5163 58.3433 85.9622 58.4916 86.4075 58.6415C87.222 58.915 88.0385 59.1775 88.859 59.4321C89.5747 59.6639 90.2196 59.894 90.8228 60.3586C90.9308 60.4645 90.9403 60.4305 91.0482 60.5733C91.1669 60.7001 91.148 60.6617 91.2204 60.7562C91.3979 61.2882 91.4463 61.6019 91.4441 62.1478C91.4447 62.2832 91.4453 62.4184 91.4457 62.5578C91.4009 63.2122 91.2667 63.4975 90.7805 63.9391C90.2387 64.3259 89.717 64.6164 89.1159 64.9009C88.9002 65.0037 88.6844 65.1066 88.4622 65.2128C88.2326 65.3208 88.0029 65.4287 87.7662 65.5398C87.4055 65.7114 87.0447 65.883 86.6841 66.0546C86.3163 66.2293 85.9481 66.4033 85.5799 66.5774C84.8978 66.9003 84.2171 67.2265 83.537 67.5535C83.332 67.6521 83.127 67.7508 82.9159 67.8521C82.5314 68.037 82.1467 68.2221 81.7622 68.4072C81.5006 68.5325 81.5006 68.5325 81.2336 68.6603C81.0706 68.7392 80.9078 68.818 80.7398 68.8993C80.3364 69.0832 79.9358 69.2273 79.5173 69.3716C78.6716 69.8209 78.4312 70.3529 78.0247 71.1935C74.9686 77.0062 69.1458 81.0109 62.9846 82.9821C62.7216 83.0626 62.4584 83.1423 62.1948 83.2212C61.9487 83.296 61.7023 83.3709 61.4487 83.4481C48.8931 87.0162 34.9652 84.1166 23.7237 77.9646C20.3659 76.0769 17.2031 73.8292 14.4023 71.1833C13.9667 70.7734 13.5232 70.3847 13.0649 70.0006C10.2105 67.5042 7.95184 64.2603 6.13158 60.955C6.0272 60.7659 6.0272 60.7659 5.92044 60.5733C5.10952 59.0856 4.42841 57.5773 3.88269 55.9725C3.83696 55.8391 3.79104 55.7057 3.74392 55.5684C2.9314 53.0463 2.64095 50.5879 2.665 47.9581C2.6656 47.8145 2.66639 47.671 2.66699 47.5231C2.6817 45.345 2.80894 43.3418 3.5471 41.2732C3.59521 41.1353 3.64313 40.9973 3.69263 40.8551C5.05286 37.0184 7.56099 33.1494 10.9029 30.7365C11.0341 30.7365 11.1653 30.7365 11.3005 30.7365C9.64925 26.6473 5.10972 24.1431 1.44493 22.0901C0.74434 21.6545 0.430427 21.3863 0.167407 20.5974C-0.0675811 19.9273 0.0135281 20.0259 0.0135281 19.3016C0.0797304 18.932 0.371185 18.3507 0.495041 18.0941C0.602396 17.9472 0.574955 17.9877 0.742747 17.8531C1.26581 17.6153 1.22187 17.6762 1.55905 17.6153C2.93955 17.4322 3.87772 17.7595 5.05067 18.4603C5.20415 18.5491 5.35782 18.6378 5.51587 18.7295C8.08186 20.2493 10.3502 22.1117 12.4934 24.1759C12.6254 24.2976 12.7574 24.4195 12.8934 24.5447C13.9039 25.5008 14.6828 26.6159 15.4754 27.7544C15.6552 27.6684 15.8349 27.5823 16.02 27.4936C16.2544 27.3829 16.489 27.2721 16.7305 27.158C16.9635 27.0473 17.1963 26.9366 17.4365 26.8224C18.0599 26.5616 18.0599 26.5616 18.6563 26.5616C17.878 23.2525 16.8878 20.2155 15.2766 17.2177C15.1733 17.0203 15.0697 16.8231 14.9629 16.6197C14.1248 15.0999 13.0999 13.7299 12.0558 12.3464C11.9385 12.1907 11.8214 12.0351 11.7005 11.8748C11.595 11.7359 11.4892 11.5971 11.3804 11.454C10.7546 10.5571 10.6618 9.97286 10.7041 8.8679C10.7041 8.69692 10.7041 8.63708 10.79 8.39593C10.9952 8.05061 11.0182 8.05458 11.2451 7.8023C11.5087 7.54624 11.5087 7.5522 11.7934 7.39753C12.0558 7.27745 12.419 7.19375 12.5598 7.19375C13.4926 7.1192 13.7937 7.25558 14.5633 7.8023C15.177 8.32774 15.6422 8.9671 16.1216 9.61342C16.2341 9.76371 16.3466 9.91401 16.4625 10.0689C19.1699 13.7323 21.3881 17.7873 22.6325 22.1879C22.7048 22.4316 22.7048 22.4316 22.7786 22.6803C23.0044 23.495 23.0301 24.0994 23.0301 24.9712C24.6046 24.6431 26.1791 24.3151 27.8014 23.9771C27.5597 23.5056 27.3177 23.034 27.0684 22.5481C24.8392 18.113 23.4573 12.805 24.936 7.88301C25.6314 5.82259 26.5958 4.19099 28.199 2.70492C28.2962 2.60909 28.3934 2.51327 28.4934 2.41446C33.221 -2.00996 40.6275 0.3443 45.0975 3.89775ZM30.8091 6.55519C29.2831 8.44245 28.9217 10.986 29.0254 13.3549C29.3602 16.1822 30.3312 18.8972 31.7395 21.364C31.9763 21.7903 31.9763 21.7903 32.2381 22.3612C32.6914 23.2412 33.0101 23.8566 33.9779 24.1825C34.7254 24.2694 35.4485 24.2904 36.2009 24.2877C36.4685 24.2948 36.7361 24.303 37.0035 24.3123C37.5341 24.3302 38.0639 24.3433 38.5948 24.3539C39.5798 24.3817 40.5524 24.4658 41.5315 24.5735C41.68 24.5879 41.8287 24.602 41.9818 24.6167C42.5576 24.6777 43.1641 24.8535 43.7331 24.9712C44.7613 25.1839 44.9544 25.2936 45.6939 25.3688C45.686 25.193 45.6778 25.0171 45.6695 24.836C45.3148 16.7678 45.3148 16.7678 46.1188 13.484C46.274 12.8027 46.3516 12.3206 46.0915 11.6512C45.5559 10.8719 44.9265 10.1737 44.3023 9.46431C44.1957 9.33847 44.0892 9.21262 43.9792 9.083C41.8725 6.77328 38.6431 5.06772 35.5548 4.69298C33.6425 4.69298 32.1733 5.19317 30.8091 6.55519ZM53.4473 8.47028C50.713 11.8456 50.0235 15.7977 49.9931 20.0259C49.9903 20.2744 49.9877 20.5231 49.9847 20.7791C49.9951 22.8332 50.0442 25.5405 51.4593 27.158C52.2893 27.633 53.1609 27.9868 54.0438 28.3509C54.5092 28.559 54.973 28.7703 55.4354 28.9846C55.6151 29.0673 55.6151 29.0674 55.7982 29.152C57.1563 29.7878 58.4775 30.4952 59.798 31.2049C59.9686 31.296 60.1391 31.3868 60.3147 31.4805C60.4666 31.5622 60.6183 31.6439 60.7747 31.7282C61.1882 31.9234 61.5445 32.0572 61.996 32.1282C63.9677 31.3486 65.4954 29.8252 66.9661 28.3509C67.1281 28.1912 67.2902 28.0316 67.457 27.867C70.6977 24.4837 72.6573 19.9233 72.6154 15.2341C72.5243 12.443 71.4406 10.1589 69.4739 8.19534C64.8632 4.2902 57.7873 3.96137 53.4473 8.47028ZM11.5087 36.6114C8.42142 40.008 7.13177 44.4177 7.25542 48.9505C7.57808 55.3902 11.1001 61.1846 15.4754 65.7263C15.6285 65.887 15.6285 65.887 15.7846 66.0508C17.9943 68.4506 17.9943 68.4506 20.6444 70.2989C26.0746 70.1764 32.8027 64.8355 36.4105 61.089C41.4156 55.7147 43.9778 48.7 43.7331 41.3649C43.4991 37.1395 42.4084 33.0878 40.9226 29.1461C30.6781 27.4403 19.0038 28.7282 11.5087 36.6114ZM53.6461 33.1222C53.6789 33.2828 53.6789 33.2828 53.7121 33.4468C53.8316 34.0661 53.9384 34.6872 54.0438 35.3091C54.0694 35.4554 54.0948 35.6015 54.1213 35.7522C55.8451 45.8692 53.5535 56.2896 47.682 64.7323C46.6502 66.1834 45.5269 67.5436 44.3194 68.8529C43.9341 69.2728 43.5647 69.7024 43.1965 70.1374C42.4981 70.9342 41.7411 71.6153 40.9226 72.2869C40.7266 72.4507 40.5305 72.6143 40.3285 72.7831C38.7472 74.0793 37.0824 75.1612 35.3234 76.201C34.7779 76.5241 34.2608 76.8588 33.7656 77.257C34.929 77.7934 36.1107 78.158 37.3441 78.4996C37.5347 78.5555 37.7256 78.6113 37.922 78.669C39.7647 79.1801 41.0279 78.8706 42.7615 78.164C43.0208 78.0588 43.0208 78.0588 43.2852 77.9517C49.2993 75.4537 54.4593 71.6348 58.0199 66.1239C58.1427 65.9363 58.2654 65.7488 58.392 65.5555C62.6411 58.7037 62.7771 50.0742 60.9918 42.4386C60.7497 41.4482 60.4825 40.4657 60.2067 39.484C60.1365 39.2265 60.1366 39.2265 60.0648 38.9639C59.5529 36.948 59.5529 36.948 58.256 35.4085C58.16 35.3091 57.8062 35.0397 57.3348 34.8013C57.0473 34.6482 56.4616 34.2965 56.0859 34.0774C54.4344 33.4468 55.0501 33.5906 53.6461 33.1222ZM73.1291 50.6171C73.1263 50.7809 73.1233 50.9447 73.1203 51.1135C72.9349 60.5381 69.7995 68.5909 63.6373 75.9966C63.2948 76.4135 62.3157 77.7294 61.996 78.164C62.957 77.8841 65.7681 76.7565 66.6182 76.2382C66.815 76.1185 66.815 76.1185 67.0156 75.9966C71.322 73.3328 74.2915 69.6802 75.577 64.7571C76.7102 59.924 75.5706 54.956 73.3279 50.6171C73.2623 50.6171 73.1967 50.6171 73.1291 50.6171Z" fill="#F78750"/>
    <path d="M17.8602 43.7333C17.9997 43.2019 19.3546 43.0971 20.8862 43.4995C22.4178 43.9019 23.5462 44.6587 23.4066 45.1903C23.2671 45.7217 21.9122 45.8265 20.3806 45.4241C18.849 45.0217 17.7204 44.2649 17.8602 43.7333Z" fill="#F78750"/>
    <path d="M29.743 38.5116C30.6845 39.0915 31.4767 39.7863 31.7775 40.8756C31.927 42.1664 31.9606 43.3628 31.1811 44.4541C30.4008 45.3825 29.7094 45.9644 28.4609 46.1044C27.0305 46.1103 26.18 45.9477 25.0804 44.9759C24.0744 43.834 23.9036 43.0225 23.9426 41.5177C24.0631 40.5696 24.377 39.9821 25.0181 39.2851C25.11 39.1806 25.2016 39.076 25.2963 38.9682C26.4657 37.8999 28.3384 37.9482 29.743 38.5116Z" fill="#F78750"/>
    <path d="M18.3752 35.3307C19.3168 35.9104 20.109 36.6053 20.41 37.6945C20.5593 38.9854 20.5931 40.1818 19.8136 41.273C19.0333 42.2014 18.3418 42.7834 17.0931 42.9233C15.6627 42.9295 14.8122 42.7667 13.7126 41.7949C12.7067 40.6529 12.5359 39.8414 12.5751 38.3369C12.6954 37.3886 13.0093 36.8013 13.6506 36.1041C13.7423 35.9995 13.8341 35.8949 13.9286 35.7872C15.0979 34.7188 16.9707 34.7673 18.3752 35.3307Z" fill="#F78750"/>
</svg>
